<svg xmlns="http://www.w3.org/2000/svg" xmlns:xlink="http://www.w3.org/1999/xlink" viewBox="0 0 153.13 153.13"><defs><style>.cls-1,.cls-2,.cls-3{fill:none;stroke-miterlimit:10;stroke-width:10px;}.cls-1{stroke:url(#linear-gradient);}.cls-2{stroke:url(#linear-gradient-2);}.cls-3{stroke:url(#linear-gradient-3);}</style><linearGradient id="linear-gradient" y1="99.39" x2="107.48" y2="99.39" gradientUnits="userSpaceOnUse"><stop offset="0" stop-color="#f9b233"/><stop offset="1" stop-color="#fcea10"/></linearGradient><linearGradient id="linear-gradient-2" x1="51.82" y1="76.57" x2="101.31" y2="76.57" gradientTransform="translate(133.49 -15.54) rotate(76.72)" xlink:href="#linear-gradient"/><linearGradient id="linear-gradient-3" x1="45.66" y1="53.74" x2="153.13" y2="53.74" xlink:href="#linear-gradient"/></defs><g id="Layer_2" data-name="Layer 2"><g id="Layer_1-2" data-name="Layer 1"><path class="cls-1" d="M102.48,102.48a51.79,51.79,0,0,1-25.91,44.88,51.79,51.79,0,0,1-25.91-44.88A51.79,51.79,0,0,1,5.78,76.57a51.83,51.83,0,0,1,70.79-19,51.83,51.83,0,0,0-19,19,51.81,51.81,0,0,0,44.88,25.91Z"/><circle class="cls-2" cx="76.57" cy="76.57" r="18.97" transform="translate(-15.54 133.49) rotate(-76.72)"/><path class="cls-3" d="M147.36,76.57a51.83,51.83,0,0,1-70.79,19,51.83,51.83,0,0,0,19-19A51.81,51.81,0,0,0,50.66,50.66,51.79,51.79,0,0,1,76.57,5.78a51.79,51.79,0,0,1,25.91,44.88A51.79,51.79,0,0,1,147.36,76.57Z"/><circle class="cls-2" cx="76.57" cy="76.57" r="18.97" transform="translate(-15.54 133.49) rotate(-76.72)"/><circle class="cls-2" cx="76.57" cy="76.57" r="18.97" transform="translate(-15.54 133.49) rotate(-76.72)"/></g></g></svg>